<?xml version="1.0" standalone="no"?>
<!DOCTYPE svg PUBLIC "-//W3C//DTD SVG 20010904//EN"
 "http://www.w3.org/TR/2001/REC-SVG-20010904/DTD/svg10.dtd">
<svg version="1.0" xmlns="http://www.w3.org/2000/svg"
 width="120.000000pt" height="120.000000pt" viewBox="0 0 120.000000 120.000000"
 preserveAspectRatio="xMidYMid meet">

<g transform="translate(0.000000,120.000000) scale(0.100000,-0.100000)"
fill="#000000" stroke="none">
<path d="M440 1097 l-35 -10 30 -7 c17 -4 22 -8 13 -9 -28 -2 -21 -21 7 -21
14 0 25 -4 25 -10 0 -5 10 -11 23 -11 16 -1 18 -2 5 -6 -35 -9 -18 -34 40 -60
79 -37 84 -37 67 -4 -23 45 -103 138 -122 143 -10 2 -34 0 -53 -5z"/>
<path d="M372 941 c-43 -35 -112 -117 -112 -135 0 -9 84 -7 99 3 7 5 11 15 9
22 -3 8 10 43 29 77 19 35 32 66 30 68 -2 3 -27 -13 -55 -35z"/>
<path d="M640 869 c-15 -26 -7 -34 19 -20 12 7 18 17 15 26 -8 21 -21 19 -34
-6z"/>
<path d="M912 806 c-15 -15 -20 -28 -16 -40 6 -16 2 -17 -37 -12 -202 25 -251
28 -259 16 -6 -9 -13 -7 -29 9 -13 13 -27 19 -34 14 -7 -4 -21 -7 -32 -8 -22
0 -50 -48 -41 -71 7 -19 55 -18 62 1 4 8 10 12 15 9 5 -3 5 -13 -1 -24 -9 -16
-6 -21 15 -26 19 -5 25 -12 23 -28 -4 -28 32 -33 77 -12 20 10 46 14 62 11 26
-5 26 -5 5 5 -12 5 -25 16 -28 25 -4 8 -15 15 -26 15 -11 0 -18 5 -15 13 3 8
27 12 81 11 78 -1 115 -16 87 -33 -7 -5 -11 -13 -7 -19 3 -5 -6 -13 -22 -17
l-27 -7 24 -19 c13 -10 29 -19 36 -19 6 0 17 -11 23 -24 6 -14 23 -27 41 -31
46 -10 53 -25 29 -63 -19 -30 -23 -32 -79 -32 l-58 0 -3 61 -3 61 -53 -75
c-29 -42 -56 -78 -61 -81 -11 -7 -61 71 -61 95 0 11 7 30 15 43 18 27 10 60
-13 51 -9 -3 -26 5 -41 18 -28 26 -67 48 -118 67 -24 9 -33 19 -33 36 0 12 -4
26 -10 29 -5 3 -10 15 -10 26 0 22 -18 26 -26 5 -6 -15 39 -112 54 -118 11 -4
75 -158 69 -165 -3 -2 -27 10 -55 26 -27 17 -52 31 -55 31 -7 0 -36 -54 -61
-113 -8 -21 -11 -35 -6 -32 6 4 27 -12 47 -34 20 -23 42 -41 50 -41 7 0 13
-11 13 -25 0 -47 50 -76 158 -92 29 -4 39 -9 30 -14 -8 -6 0 -9 24 -9 31 0 42
-6 65 -36 84 -109 83 -108 92 -41 l6 42 69 12 c88 16 110 31 142 96 14 28 51
92 81 140 51 80 55 92 49 128 -8 51 -36 106 -93 187 -45 64 -61 75 -45 31 5
-13 13 -49 17 -79 6 -49 5 -53 -8 -35 -26 37 -47 88 -47 114 0 33 -10 71 -19
70 -3 0 -16 -10 -29 -23z m-262 -80 c0 -14 -14 -36 -22 -36 -5 0 -7 4 -3 9 3
6 -3 14 -12 20 -16 9 -14 10 10 11 15 0 27 -2 27 -4z m-232 -314 c2 -7 -3 -12
-12 -12 -9 0 -16 7 -16 16 0 17 22 14 28 -4z"/>
<path d="M276 360 c-23 -59 -21 -106 7 -124 12 -8 31 -16 42 -18 17 -3 20 3
23 46 1 32 -3 55 -12 65 -8 9 -21 29 -29 44 l-15 28 -16 -41z"/>
<path d="M533 193 c9 -2 25 -2 35 0 9 3 1 5 -18 5 -19 0 -27 -2 -17 -5z"/>
<path d="M388 183 c17 -2 47 -2 65 0 17 2 3 4 -33 4 -36 0 -50 -2 -32 -4z"/>
</g>
</svg>
